# xmcd
#
# Track frame offsets:
# 200
# 2775
# 11300
# 20675
# 33350
# 43100
# 54125
# 65375
# 78050
# 88475
# 97850
# 106775
# 117200
# 129987
# 142062
# 150612
# 155637
# 165912
# 177087
# 187587
# 200412
# 215112
# 218010
# 228312
# 240312
# 250962
# 262137
# 271137
# 279612
#
# Disc length: 3880 seconds
#
#
# Revision: 2
# Processed by: cddbd v1.4PL0 Copyright (c) Steve Scherf et al.
# Submitted via: FreeRIP 2.52 
#
DISCID=7b0f261d
DTITLE=The Dillards - There Is a Time
DYEAR=1900
DGENRE=Bluegrass
TTITLE0=Intro
TTITLE1=Band in the Hollow
TTITLE2=Dooley
TTITLE3=Polly Vaughn
TTITLE4=The Old Home Place
TTITLE5=Somebody Touched Me
TTITLE6=Hamilton County Breakdown
TTITLE7=Walkin' Down the Line
TTITLE8=Never See My Home Again
TTITLE9=Paddy on the Turnpike
TTITLE10=Old Blue
TTITLE11=Liberty
TTITLE12=There Is a Time
TTITLE13=The Whole World 'Round
TTITLE14=Sally Johnson
TTITLE15=Yesterday
TTITLE16=Ebo Walker
TTITLE17=Rainmaker
TTITLE18=Copperfileds
TTITLE19=Old Man at the Mill
TTITLE20=Lemon Chimes
TTITLE21=I'll Fly Away
TTITLE22=Nobody Knows
TTITLE23=Listen to the Sound
TTITLE24=Reason to Believe
TTITLE25=Hey boys
TTITLE26=I've Just Seen a Face
TTITLE27=Don't You cry
TTITLE28=She Sang Hymns Out of Tune
EXTD=
EXTT0=
EXTT1=
EXTT2=
EXTT3=
EXTT4=
EXTT5=
EXTT6=
EXTT7=
EXTT8=
EXTT9=
EXTT10=
EXTT11=
EXTT12=
EXTT13=
EXTT14=
EXTT15=
EXTT16=
EXTT17=
EXTT18=
EXTT19=
EXTT20=
EXTT21=
EXTT22=
EXTT23=
EXTT24=
EXTT25=
EXTT26=
EXTT27=
EXTT28=
PLAYORDER=
